<svg xmlns="http://www.w3.org/2000/svg" xmlns:xlink="http://www.w3.org/1999/xlink" width="500" zoomAndPan="magnify" viewBox="0 0 375 374.999991" height="500" preserveAspectRatio="xMidYMid meet" version="1.0"><defs><clipPath id="691bfcaabf"><path d="M 114 121.070312 L 262.5 121.070312 L 262.5 189 L 114 189 Z M 114 121.070312 " clip-rule="nonzero"/></clipPath><clipPath id="2151c4bc24"><path d="M 123 192 L 255 192 L 255 235.820312 L 123 235.820312 Z M 123 192 " clip-rule="nonzero"/></clipPath></defs><g clip-path="url(#691bfcaabf)"><path fill="#ffffff" d="M 210.050781 121.40625 L 209.867188 121.410156 C 208.355469 121.472656 207.148438 121.65625 206.242188 121.957031 C 200.308594 124.390625 196.949219 125.6875 196.160156 125.84375 C 193.019531 126.675781 190.410156 127.128906 188.34375 127.199219 C 186.511719 127.265625 183.773438 126.867188 180.125 126.011719 C 179.25 125.84375 175.949219 124.644531 170.21875 122.417969 C 169.628906 122.203125 168.832031 122.042969 167.820312 121.941406 C 165.308594 121.503906 162.273438 122.25 158.710938 124.171875 C 150.648438 128.707031 145.367188 141.835938 142.875 163.554688 C 142.253906 164.144531 141.617188 164.496094 140.96875 164.605469 C 129.921875 165.703125 123.808594 166.695312 122.628906 167.582031 C 118.59375 169.023438 116.066406 171.167969 115.054688 174.019531 C 113.351562 177.550781 117.789062 180.308594 128.378906 182.289062 C 162.585938 186.664062 183.214844 188.535156 190.257812 187.902344 C 195.128906 187.824219 202.1875 187.253906 211.4375 186.195312 C 219.699219 185.300781 232.242188 183.578125 249.066406 181.03125 C 252.289062 180.550781 255.636719 179.519531 259.109375 177.9375 C 260.722656 177.230469 261.84375 176.082031 262.480469 174.492188 C 262.355469 171.03125 260.144531 168.445312 255.851562 166.726562 C 254.332031 165.507812 247.753906 164.46875 236.109375 163.613281 C 235.457031 163.519531 234.816406 163.183594 234.183594 162.601562 C 231.960938 147.773438 228.902344 137.246094 225.003906 131.019531 C 221.011719 124.835938 216.027344 121.632812 210.050781 121.40625 " fill-opacity="1" fill-rule="nonzero"/></g><g clip-path="url(#2151c4bc24)"><path fill="#ffffff" d="M 232.355469 203.96875 C 232.664062 203.96875 232.949219 204.121094 233.128906 204.363281 C 233.140625 204.382812 233.164062 204.394531 233.1875 204.394531 C 233.644531 204.519531 233.949219 204.972656 233.875 205.457031 C 232.382812 215.308594 229.605469 221.460938 225.546875 223.914062 C 225.539062 223.917969 225.53125 223.925781 225.523438 223.933594 L 225.515625 223.933594 C 223.523438 225.292969 221.367188 225.972656 219.042969 225.972656 C 216.03125 225.972656 212.738281 224.828125 209.167969 222.546875 L 209.148438 222.53125 C 206.914062 221.027344 205.050781 219.203125 203.554688 217.0625 L 203.535156 217.03125 C 203.523438 217.015625 203.515625 217.003906 203.511719 216.992188 L 203.507812 216.992188 C 202.417969 215.289062 202.027344 213.972656 202.335938 213.042969 L 202.332031 213.042969 L 202.335938 213.03125 C 202.457031 212.675781 202.664062 212.382812 202.960938 212.148438 C 203.011719 212.109375 203.066406 212.070312 203.121094 212.035156 L 203.128906 212.027344 C 203.1875 211.992188 203.25 211.960938 203.316406 211.9375 C 212.179688 208.789062 221.792969 206.136719 232.164062 203.988281 C 232.226562 203.976562 232.292969 203.96875 232.355469 203.96875 Z M 145.578125 204.875 C 145.636719 204.875 145.695312 204.878906 145.753906 204.890625 C 156.167969 206.820312 165.835938 209.269531 174.761719 212.234375 C 174.828125 212.257812 174.894531 212.289062 174.957031 212.328125 C 175.015625 212.363281 175.070312 212.398438 175.121094 212.4375 L 175.132812 212.445312 L 175.128906 212.445312 C 175.425781 212.671875 175.636719 212.960938 175.761719 213.308594 L 175.765625 213.316406 C 176.09375 214.242188 175.730469 215.566406 174.671875 217.292969 C 174.671875 217.292969 174.664062 217.308594 174.648438 217.332031 L 174.628906 217.363281 C 173.179688 219.535156 171.351562 221.398438 169.148438 222.949219 L 169.128906 222.960938 C 165.511719 225.382812 162.164062 226.597656 159.082031 226.597656 C 156.84375 226.597656 154.742188 225.953125 152.785156 224.671875 L 152.789062 224.671875 C 152.785156 224.671875 152.785156 224.671875 152.785156 224.667969 C 148.675781 222.300781 145.773438 216.210938 144.074219 206.390625 C 143.992188 205.90625 144.285156 205.445312 144.746094 205.3125 L 144.796875 205.28125 C 144.972656 205.03125 145.265625 204.875 145.578125 204.875 Z M 153.257812 233.921875 L 153.234375 233.925781 Z M 234.464844 192.984375 C 233.855469 192.984375 233.246094 192.996094 232.648438 193.019531 L 232.632812 193.019531 C 229.53125 193.09375 226.503906 193.460938 223.546875 194.121094 C 223.519531 194.128906 223.496094 194.132812 223.472656 194.136719 C 222.011719 194.34375 216.554688 196.109375 207.097656 199.429688 L 207.0625 199.441406 C 204.96875 200.089844 202.882812 200.683594 200.804688 201.226562 L 200.796875 201.226562 L 200.722656 201.246094 C 195.84375 202.425781 192.144531 203.015625 189.625 203.015625 C 189.390625 203.015625 189.167969 203.011719 188.953125 203 L 188.9375 203 C 188.617188 203.023438 188.273438 203.03125 187.90625 203.03125 C 185.394531 203.03125 181.804688 202.519531 177.132812 201.492188 L 177.058594 201.476562 C 177.054688 201.472656 177.046875 201.472656 177.039062 201.472656 L 177.042969 201.472656 C 174.957031 200.972656 172.863281 200.421875 170.753906 199.820312 L 170.71875 199.808594 C 161.203125 196.6875 155.710938 195.035156 154.242188 194.855469 L 154.238281 194.855469 C 154.214844 194.851562 154.1875 194.847656 154.164062 194.84375 C 151.195312 194.246094 148.160156 193.941406 145.054688 193.929688 L 145.039062 193.929688 C 144.757812 193.925781 144.472656 193.921875 144.1875 193.921875 C 138.554688 193.921875 132.363281 194.964844 125.605469 197.054688 L 125.566406 197.066406 C 124.332031 197.390625 123.746094 198.957031 123.808594 201.769531 C 123.808594 201.792969 123.808594 201.820312 123.804688 201.84375 C 123.738281 203.015625 124.023438 206.75 124.667969 213.046875 L 124.667969 213.050781 C 124.710938 213.472656 124.773438 213.773438 124.863281 213.953125 C 124.875 213.976562 124.898438 213.992188 124.925781 213.992188 L 124.917969 213.992188 C 128.734375 215.773438 131.285156 217.238281 132.574219 218.390625 L 132.609375 218.425781 C 139.421875 225.195312 143.53125 228.945312 144.945312 229.679688 C 144.984375 229.699219 145.023438 229.722656 145.058594 229.746094 C 147.734375 231.636719 150.457031 233.03125 153.234375 233.925781 L 153.238281 233.925781 C 156.148438 234.792969 158.882812 235.230469 161.449219 235.230469 C 163.882812 235.230469 166.160156 234.835938 168.28125 234.054688 L 168.300781 234.046875 C 170.0625 233.429688 171.738281 232.5625 173.324219 231.445312 L 173.320312 231.445312 L 173.34375 231.433594 L 182.859375 223.578125 C 182.894531 223.550781 182.929688 223.527344 182.96875 223.503906 C 184.859375 222.335938 186.71875 221.613281 188.550781 221.335938 C 188.597656 221.328125 188.648438 221.324219 188.695312 221.324219 C 188.839844 221.324219 188.976562 221.355469 189.101562 221.417969 C 189.113281 221.421875 189.125 221.425781 189.136719 221.425781 C 189.144531 221.425781 189.15625 221.421875 189.167969 221.414062 C 189.296875 221.351562 189.441406 221.3125 189.59375 221.3125 C 189.636719 221.3125 189.675781 221.316406 189.71875 221.324219 C 191.554688 221.5625 193.433594 222.246094 195.347656 223.375 C 195.382812 223.394531 195.417969 223.417969 195.453125 223.445312 L 205.132812 231.105469 L 205.152344 231.109375 L 205.144531 231.109375 C 206.757812 232.195312 208.453125 233.03125 210.230469 233.609375 L 210.246094 233.617188 C 212.246094 234.308594 214.378906 234.65625 216.636719 234.65625 C 219.335938 234.65625 222.21875 234.160156 225.289062 233.175781 L 225.296875 233.167969 L 225.300781 233.167969 C 228.054688 232.21875 230.746094 230.769531 233.375 228.828125 C 233.410156 228.800781 233.449219 228.777344 233.488281 228.757812 C 234.886719 227.996094 238.917969 224.160156 245.585938 217.25 L 245.625 217.210938 C 246.886719 216.035156 249.40625 214.515625 253.183594 212.660156 L 253.179688 212.660156 C 253.203125 212.65625 253.226562 212.640625 253.226562 212.636719 L 253.238281 212.617188 C 253.324219 212.4375 253.382812 212.136719 253.414062 211.710938 L 253.414062 211.707031 C 253.925781 205.398438 254.136719 201.660156 254.042969 200.488281 C 254.042969 200.464844 254.042969 200.4375 254.042969 200.414062 C 254.042969 197.601562 253.425781 196.046875 252.183594 195.746094 L 252.144531 195.734375 C 245.734375 193.902344 239.839844 192.984375 234.464844 192.984375 Z M 234.464844 192.984375 " fill-opacity="1" fill-rule="nonzero"/></g></svg>