<svg xmlns="http://www.w3.org/2000/svg" xmlns:xlink="http://www.w3.org/1999/xlink" width="500" zoomAndPan="magnify"  height="500" preserveAspectRatio="xMidYMid meet" version="1.0"><defs><clipPath id="15b2544330"><path d="M 165 107.011719 L 193 107.011719 L 193 134 L 165 134 Z M 165 107.011719 " clip-rule="nonzero"/></clipPath><clipPath id="f5e12b4acb"><path d="M 198 144 L 273.703125 144 L 273.703125 225 L 198 225 Z M 198 144 " clip-rule="nonzero"/></clipPath></defs><g clip-path="url(#15b2544330)"><path fill="#ffffff" d="M 192.355469 120.320312 C 192.367188 121.195312 192.292969 122.0625 192.132812 122.921875 C 191.972656 123.78125 191.730469 124.613281 191.40625 125.425781 C 191.078125 126.234375 190.679688 127.007812 190.203125 127.738281 C 189.726562 128.472656 189.183594 129.152344 188.570312 129.777344 C 187.960938 130.402344 187.296875 130.960938 186.574219 131.453125 C 185.855469 131.949219 185.09375 132.367188 184.289062 132.710938 C 183.488281 133.054688 182.65625 133.316406 181.800781 133.496094 C 180.949219 133.679688 180.082031 133.773438 179.210938 133.785156 C 178.335938 133.792969 177.46875 133.71875 176.613281 133.558594 C 175.753906 133.398438 174.917969 133.15625 174.105469 132.832031 C 173.296875 132.507812 172.523438 132.105469 171.792969 131.628906 C 171.058594 131.152344 170.382812 130.609375 169.757812 130 C 169.132812 129.386719 168.570312 128.722656 168.078125 128 C 167.585938 127.28125 167.164062 126.519531 166.820312 125.714844 C 166.476562 124.914062 166.214844 124.085938 166.035156 123.230469 C 165.855469 122.375 165.757812 121.511719 165.75 120.636719 C 165.738281 119.761719 165.8125 118.898438 165.972656 118.039062 C 166.132812 117.179688 166.375 116.34375 166.699219 115.535156 C 167.027344 114.722656 167.425781 113.949219 167.902344 113.21875 C 168.378906 112.488281 168.921875 111.808594 169.535156 111.183594 C 170.144531 110.558594 170.808594 110 171.53125 109.503906 C 172.25 109.011719 173.011719 108.59375 173.816406 108.25 C 174.617188 107.90625 175.449219 107.640625 176.304688 107.460938 C 177.15625 107.28125 178.023438 107.1875 178.894531 107.175781 C 179.769531 107.164062 180.636719 107.238281 181.492188 107.398438 C 182.351562 107.5625 183.1875 107.804688 184 108.128906 C 184.808594 108.453125 185.582031 108.851562 186.3125 109.332031 C 187.046875 109.808594 187.722656 110.351562 188.347656 110.960938 C 188.972656 111.570312 189.535156 112.238281 190.027344 112.957031 C 190.519531 113.679688 190.941406 114.441406 191.285156 115.242188 C 191.628906 116.046875 191.890625 116.875 192.070312 117.730469 C 192.25 118.585938 192.347656 119.449219 192.355469 120.320312 Z M 192.355469 120.320312 " fill-opacity="1" fill-rule="nonzero"/></g><path fill="#ffffff" d="M 191.925781 185.824219 L 191.886719 154.671875 C 191.886719 153.683594 192.480469 152.777344 193.386719 152.34375 C 194.292969 151.910156 195.359375 152.066406 196.152344 152.699219 L 210.007812 164.109375 C 211.113281 165.015625 211.273438 166.59375 210.363281 167.699219 L 199.070312 181.796875 C 198.085938 183.019531 197.652344 184.597656 197.808594 186.179688 C 197.964844 187.757812 198.757812 189.179688 200.019531 190.167969 C 202.507812 192.179688 206.375 191.707031 208.390625 189.257812 L 224.933594 168.609375 C 226.945312 166.082031 226.550781 162.371094 224.0625 160.316406 L 201.324219 141.523438 C 200.257812 140.65625 198.914062 140.183594 197.53125 140.183594 L 161.328125 140.183594 C 159.945312 140.183594 158.601562 140.65625 157.539062 141.523438 L 134.835938 160.238281 C 132.347656 162.292969 131.953125 166.003906 133.964844 168.53125 L 150.507812 189.179688 C 152.484375 191.667969 156.351562 192.101562 158.878906 190.085938 C 160.101562 189.101562 160.894531 187.679688 161.089844 186.101562 C 161.25 184.519531 160.8125 182.980469 159.828125 181.71875 L 148.535156 167.621094 C 147.667969 166.515625 147.824219 164.898438 148.890625 164.027344 L 162.75 152.617188 C 163.539062 151.988281 164.605469 151.828125 165.511719 152.261719 C 166.421875 152.699219 167.011719 153.605469 167.011719 154.59375 L 167.011719 185.390625 L 156.746094 249.625 C 156.511719 251.207031 156.867188 252.785156 157.8125 254.046875 C 158.761719 255.3125 160.101562 256.179688 161.683594 256.417969 C 165.15625 257.007812 167.960938 254.679688 168.472656 251.480469 L 176.882812 198.929688 C 177.082031 197.667969 178.148438 196.761719 179.449219 196.761719 C 180.714844 196.761719 181.820312 197.667969 182.015625 198.929688 L 190.425781 251.480469 C 190.9375 254.679688 193.9375 256.929688 197.214844 256.417969 C 198.796875 256.179688 200.175781 255.3125 201.125 254.046875 C 202.074219 252.746094 202.429688 251.207031 202.191406 249.625 Z M 191.925781 185.824219 " fill-opacity="1" fill-rule="nonzero"/><g clip-path="url(#f5e12b4acb)"><path fill="#ffffff" d="M 212.691406 144.210938 L 227.300781 156.25 C 231.960938 160.082031 232.671875 167.070312 228.921875 171.769531 L 212.378906 192.417969 C 209.179688 196.445312 203.257812 197.707031 198.675781 195.378906 L 203.414062 224.988281 C 207.679688 218.277344 216.324219 209.671875 232.554688 209 C 252.214844 208.171875 254.664062 195.96875 257.269531 183.058594 C 257.664062 181.007812 258.097656 178.953125 258.570312 176.980469 C 260.859375 167.425781 268.285156 160.792969 273.890625 157 C 251.78125 153.605469 227.894531 148.039062 212.691406 144.210938 Z M 212.691406 144.210938 " fill-opacity="1" fill-rule="nonzero"/></g><path fill="#ffffff" d="M 197.058594 160.121094 L 197.058594 175.992188 L 204.71875 166.4375 Z M 197.058594 160.121094 " fill-opacity="1" fill-rule="nonzero"/></svg>
