<?xml version="1.0" encoding="UTF-8"?>
<svg width="1200pt" height="1200pt" version="1.1" viewBox="0 0 1200 1200" xmlns="http://www.w3.org/2000/svg">
 <path d="m361.02 641.43s-1.2617 97.078 47.281 125.71c55.523 32.809 143.73 0.22656 146.89-32.363-31.043-17.043-139.44-59.773-194.17-93.348z"/>
 <path d="m838.97 641.43s1.2617 97.078-47.27 125.71c-55.535 32.809-143.75 0.22656-146.89-32.363 31.043-17.043 139.44-59.773 194.16-93.348z"/>
 <path d="m738.46 912.25c-34.969-67.5-66.289-10.812-138.46-10.812-72.121 0-105.01-54-138.47 10.812-19.199 37.141 48 122.61 138.47 122.61 90.469-0.003906 154.86-90.867 138.46-122.61zm-69.219 36.059c-1.9922 0-16.906-5.5938-23.09-14.426-2.8789 11.27-16.586 24.527-20.902 24.527-4.3203 0-23.074-16.598-26.688-24.527-4.3672 10.645-18.742 24.527-22.586 24.527-3.8398 0-17.988-16.367-20.688-27.406-9.7305 9.4688-22.223 17.305-25.969 17.305-3.7422 0-22.801-36.504-21.637-43.043 23.797 5.0508 46.609 21.406 92.305 21.406s80.316-15.504 92.305-21.406c-5.7461 20.926-21.07 43.043-23.051 43.043z"/>
 <path d="m931.11 338.58c-8.4727-22.441-6.2656-42.996-13.883-75.266-39.855-169.47-90.914-259.11-178.77-259.11-45.156 0-103.75 72.254-138 72.254-34.297 0-93.168-72.254-138.91-72.254-87.84 0-138.37 90.637-178.21 259.12-3.6953 15.648-3.1562 66.301-8.0156 78.781 45.793 24.707 148.2 65.629 324.7 65.629 185.14-0.003906 288.8-45.074 331.09-69.148z"/>
 <path d="m1149.2 471.19c0-23.629-130.08 2.0273-195.39-80.594-49.176 28.031-159.91 74.734-353.76 74.734-190.88 0-301.22-45.254-351.52-73.477-64.859 61.223-197.64 55.488-197.64 79.332 0 13.031 49.969 52.152 137.63 89.578 0.035156 0.23828 0.085937 0.46875 0.12109 0.70703-25.309 27.961-40.895 69.742-40.895 118.18 0 69.758 55.234 138.25 108.84 160.54 29.566 210.24 265.4 350.59 343.45 350.59 77.484 0 312.01-139.71 343.16-349.13 58.262-21.012 109.15-92.062 109.15-162.01 0-47.113-16.43-89.316-42.238-117.74 0.035156-0.19141 0.070313-0.37109 0.10938-0.5625 88.496-37.602 138.98-77.043 138.98-90.137zm-239.93 302.82c-19.586 0-35.762 15.289-36.863 34.848-10.402 184.3-228.49 308.07-272.38 308.07-44.137 0-262.82-123.77-272.36-308.07-1.0078-19.621-17.062-35.004-36.719-35.004-16.5-1.1289-69.371-45.996-69.371-94.211 0-37.703 14.746-69.359 34.633-78.371 30.457 12.059 48.695 43.262 48.695 43.262l6.0352-41.531c81.504 22.273 179.16 38.281 289.09 38.281s207.6-16.008 289.11-38.27l6.0352 41.52s17.531-30.254 46.633-43.668c18.574 8.3398 36.695 39.77 36.695 78.77-0.015625 46.816-44.43 94.383-69.234 94.383z"/>
</svg>
